<svg width="27" height="26" viewBox="0 0 27 26" fill="none" xmlns="http://www.w3.org/2000/svg">
<path d="M26.7041 12.9996C26.7041 5.83224 20.8718 0 13.7045 0C6.53719 0 0.704956 5.83224 0.704956 12.9996C0.704956 19.5345 5.48318 24.8748 11.6668 25.8586V16.7238H8.36415V12.9293H11.6668V10.0483C11.6668 6.81598 13.6343 4.98902 16.5855 4.98902C17.9909 4.98902 19.5368 5.27009 19.5368 5.27009V8.50242H17.9206C16.3044 8.50242 15.8126 9.48617 15.8126 10.5402V12.9996H19.3962L18.8341 16.794H15.8126V25.9289C21.9259 24.8748 26.7041 19.4642 26.7041 12.9996Z" fill="white"/>
<path d="M18.7639 16.7235L19.326 12.929H15.7423V10.4696C15.7423 9.4156 16.2342 8.43185 17.8504 8.43185H19.4665V5.19953C19.4665 5.19953 17.9909 4.91846 16.5153 4.91846C13.564 4.91846 11.5965 6.74542 11.5965 9.97774V12.8587H8.29395V16.6532H11.5965V25.788C12.2289 25.8583 12.9316 25.9286 13.6343 25.9286C14.337 25.9286 15.0397 25.8583 15.6721 25.788V16.6532H18.7639V16.7235Z" fill="#333333"/>
</svg>
