<svg width="0" height="0" class="hidden">
    <symbol width="20" height="37" viewBox="0 0 20 37"  id="fb" xmlns="http://www.w3.org/2000/svg">
        <path d="M18.6 20.9L19.6 14.2H13.2V9.8C13.2 8 14.1 6.2 17 6.2H19.9V0.5C19.9 0.5 17.2 0 14.7 0C9.39998 0 5.89999 3.2 5.89999 9V14.1H0V20.8H5.89999V37H13.2V20.8H18.6V20.9Z" fill="white"/>
    </symbol>
    <symbol width="37" height="37" viewBox="0 0 37 37" fill="none" id="insta" xmlns="http://www.w3.org/2000/svg">
        <path d="M28.2999 6.5C27.0999 6.5 26.0999 7.5 26.0999 8.7C26.0999 9.9 27.0999 10.9 28.2999 10.9C29.4999 10.9 30.4999 9.9 30.4999 8.7C30.4999 7.5 29.4999 6.5 28.2999 6.5Z" fill="white"/>
        <path d="M18.6999 9.2998C13.6999 9.2998 9.59985 13.3998 9.59985 18.3998C9.59985 23.3998 13.6999 27.4998 18.6999 27.4998C23.6999 27.4998 27.7999 23.3998 27.7999 18.3998C27.7999 13.3998 23.6999 9.2998 18.6999 9.2998ZM18.6999 24.2998C15.4999 24.2998 12.7999 21.6998 12.7999 18.4998C12.7999 15.2998 15.3999 12.5998 18.6999 12.5998C21.8999 12.5998 24.4999 15.1998 24.4999 18.4998C24.4999 21.5998 21.8999 24.2998 18.6999 24.2998Z" fill="white"/>
        <path d="M25.9 37H11.1C4.99998 37 0 32 0 25.9V11.1C0 4.99999 4.99998 0 11.1 0H25.9C32 0 37 4.99999 37 11.1V25.9C37 32 32 37 25.9 37ZM11.1 3.39999C6.89998 3.39999 3.39999 6.8 3.39999 11V25.8C3.39999 30 6.79998 33.4 11.1 33.4H25.9C30.1 33.4 33.6 30 33.6 25.8V11C33.6 6.8 30.2 3.39999 25.9 3.39999H11.1Z" fill="white"/>
    </symbol>
    <symbol width="44" height="37" viewBox="0 0 44 37" fill="none" id="teleg" xmlns="http://www.w3.org/2000/svg">
        <path fill-rule="evenodd" clip-rule="evenodd" d="M43.6552 2.76889C43.8552 1.06889 43.1552 -0.331118 41.2552 0.0688816C40.4552 0.268882 15.4552 9.96888 14.0552 10.5689L2.35522 15.0689C1.45522 15.4689 -0.744784 16.3689 0.255216 17.6689C0.855216 18.3689 6.95522 20.0689 8.25522 20.4689C10.4552 21.1689 11.1552 20.9689 11.5552 22.5689C11.8552 23.8689 12.4552 25.2689 12.8552 26.5689C13.3552 27.9689 14.4552 31.3689 14.8552 32.6689C15.0552 33.3689 15.0552 34.1689 15.8552 34.3689C17.3552 34.8689 18.3552 33.4689 19.2552 32.5689C24.1552 27.9689 22.6552 28.4689 24.8552 29.9689C26.7552 31.2689 29.0552 33.0689 31.0552 34.5689C31.9552 35.2689 33.3552 36.4689 34.3552 36.6689C36.2552 36.9689 36.6552 35.4689 36.9552 33.9689L41.6552 11.7689C42.1552 9.86889 43.4552 4.06889 43.6552 2.76889ZM12.7552 20.6689C13.2552 20.1689 14.9552 19.2689 15.6552 18.7689C16.5552 18.1689 17.5552 17.5689 18.5552 16.9689L29.9552 9.76889C30.8552 9.16889 31.9552 8.56889 32.8552 7.96889C33.6552 7.46889 35.1552 6.36889 36.0552 6.66889C36.2552 7.26889 35.2552 7.86889 34.8552 8.26889C34.3552 8.66889 33.8552 9.16888 33.3552 9.56888C32.4552 10.4689 31.3552 11.4689 30.4552 12.1689C28.4552 13.7689 26.4552 15.7689 24.5552 17.4689C23.5552 18.3689 22.5552 19.3689 21.5552 20.1689C20.6552 20.9689 19.4552 21.9689 18.6552 22.7689C18.4552 22.9689 17.2552 23.9689 17.2552 24.0689C17.1552 24.2689 17.0552 26.1689 16.9552 26.5689C16.8552 27.6689 16.6552 30.7689 16.4552 31.6689L12.7552 20.6689Z" fill="white"/>
    </symbol>
</svg>