<svg width="27" height="26" viewBox="0 0 27 26" fill="none" xmlns="http://www.w3.org/2000/svg">
<path d="M26.3893 13.0003C26.3893 20.1677 20.557 26 13.3897 26C6.22238 26 0.390137 20.1677 0.390137 13.0003C0.390137 5.83292 6.22238 0.00062835 13.3897 0.00062835C20.557 -0.0696402 26.3893 5.76265 26.3893 13.0003Z" fill="white"/>
<path d="M17.395 8.08154C16.9031 8.08154 16.4815 8.50314 16.4815 8.99502C16.4815 9.48689 16.9031 9.9085 17.395 9.9085C17.8869 9.9085 18.3085 9.48689 18.3085 8.99502C18.3085 8.43287 17.8869 8.08154 17.395 8.08154Z" fill="#333333"/>
<path d="M13.46 9.20605C11.352 9.20605 9.66553 10.8925 9.66553 13.0005C9.66553 15.1086 11.352 16.795 13.46 16.795C15.568 16.795 17.2545 15.1086 17.2545 13.0005C17.1842 10.8925 15.4978 9.20605 13.46 9.20605ZM13.46 15.3896C12.1249 15.3896 11.0709 14.3356 11.0709 13.0005C11.0709 11.6654 12.1249 10.6114 13.46 10.6114C14.7951 10.6114 15.8491 11.6654 15.8491 13.0005C15.8491 14.2654 14.7951 15.3896 13.46 15.3896Z" fill="#333333"/>
<path d="M16.4112 20.589H10.2979C7.76824 20.589 5.73047 18.5512 5.73047 16.0215V9.90823C5.73047 7.37859 7.76824 5.34082 10.2979 5.34082H16.4112C18.9408 5.34082 20.9786 7.37859 20.9786 9.90823V16.0215C21.0489 18.5512 18.9408 20.589 16.4112 20.589ZM10.2979 6.74618C8.54119 6.74618 7.13583 8.15154 7.13583 9.90823V16.0215C7.13583 17.7782 8.54119 19.1836 10.2979 19.1836H16.4112C18.1679 19.1836 19.5733 17.7782 19.5733 16.0215V9.90823C19.5733 8.15154 18.1679 6.74618 16.4112 6.74618H10.2979Z" fill="#333333"/>
</svg>
