<svg width="27" height="26" viewBox="0 0 27 26" fill="none" xmlns="http://www.w3.org/2000/svg">
<path d="M26.1447 13.0003C26.1447 20.1677 20.3124 26 13.1451 26C5.97775 26 0.145508 20.1677 0.145508 13.0003C0.145508 5.83292 5.97775 0.00062835 13.1451 0.00062835C20.3124 -0.0696402 26.1447 5.76265 26.1447 13.0003Z" fill="white"/>
<path fill-rule="evenodd" clip-rule="evenodd" d="M19.8907 7.72958C19.961 7.09717 19.6799 6.60529 19.0475 6.74582C18.7665 6.81609 9.7019 10.3295 9.21002 10.5403L4.99395 12.1565C4.64261 12.297 3.86966 12.6483 4.221 13.1402C4.4318 13.4213 6.68038 13.9834 7.10199 14.124C7.87493 14.3348 8.15599 14.3348 8.29653 14.8969C8.43706 15.3888 8.57761 15.8807 8.78841 16.3725C8.92895 16.8644 9.35056 18.1292 9.49109 18.5508C9.56136 18.7616 9.56136 19.113 9.84243 19.1833C10.4046 19.3238 10.7559 18.8319 11.1072 18.5508C12.8639 16.8644 12.3721 17.0752 13.145 17.6374C13.8477 18.1292 14.6909 18.7616 15.3936 19.2535C15.7449 19.4643 16.2368 19.9562 16.5882 20.0265C17.2908 20.167 17.4314 19.6049 17.5016 19.0427L19.1881 11.0322C19.3989 10.3295 19.8205 8.22146 19.8907 7.72958ZM8.71814 14.1942C8.85868 14.0537 9.49109 13.7024 9.77216 13.4915C10.1235 13.2807 10.4748 13.0699 10.8262 12.8591L14.972 10.2592C15.3233 10.0484 15.6747 9.83762 16.026 9.62681C16.3071 9.41601 16.8692 9.06467 17.1503 9.13494C17.2206 9.34574 16.8692 9.55655 16.7287 9.69709C16.5881 9.83762 16.3773 9.97815 16.1665 10.189C15.8152 10.47 15.4639 10.8916 15.1125 11.1727C14.4098 11.7348 13.7072 12.4375 13.0045 13.0699C12.6531 13.351 12.3018 13.7726 11.9505 14.0537C11.5991 14.3348 11.1775 14.6861 10.8965 15.0374C10.8262 15.1077 10.4046 15.459 10.4046 15.5293C10.3343 15.5996 10.3343 16.3023 10.3343 16.4428C10.264 16.7941 10.264 17.9887 10.1235 18.2698L8.71814 14.1942Z" fill="#333333"/>
</svg>
