<svg width="27" height="26" viewBox="0 0 27 26" fill="none" xmlns="http://www.w3.org/2000/svg">
<path d="M26.9 12.9996C26.9 20.1669 21.0678 25.9991 13.9004 25.9991C6.73312 25.9991 0.900879 20.1669 0.900879 12.9996C0.900879 5.83224 6.73312 0 13.9004 0C21.0678 0 26.9 5.83224 26.9 12.9996Z" fill="white"/>
<path d="M20.857 11.1723C20.857 9.41561 19.4517 8.01025 17.695 8.01025H9.75471C7.99801 8.01025 6.59265 9.41561 6.59265 11.1723V14.8965C6.59265 16.6532 7.99801 18.0586 9.75471 18.0586H17.7652C19.5219 18.0586 20.9273 16.6532 20.9273 14.8965V11.1723H20.857ZM16.1491 13.2803L12.5654 15.037C12.4249 15.1073 11.933 15.0371 11.933 14.8262V11.1723C11.933 11.0318 12.4249 10.8912 12.5654 10.9615L16.0085 12.8587C16.1491 12.9993 16.2896 13.2101 16.1491 13.2803Z" fill="#333333"/>
</svg>
